<?xml version="1.0" encoding="UTF-8" standalone="no"?>
<svg
  xmlns:dc="http://purl.org/dc/elements/1.1/"
  xmlns:cc="http://creativecommons.org/ns#"
  xmlns:rdf="http://www.w3.org/1999/02/22-rdf-syntax-ns#"
  xmlns:svg="http://www.w3.org/2000/svg"
  xmlns="http://www.w3.org/2000/svg"
  viewBox="0 0 960 720"
  height="720"
  width="960"
  xml:space="preserve"
  id="svg2"
  version="1.1"><metadata
     id="metadata8"><rdf:RDF><cc:Work
         rdf:about=""><dc:format>image/svg+xml</dc:format><dc:type
           rdf:resource="http://purl.org/dc/dcmitype/StillImage" /></cc:Work></rdf:RDF></metadata><defs
     id="defs6"><clipPath
       id="clipPath20"
       clipPathUnits="userSpaceOnUse"><path
         id="path18"
         d="M 0,0 H 365760 V 274320 H 0 Z" /></clipPath></defs><g
     transform="matrix(1.3333333,0,0,-1.3333333,0,720)"
     id="g10"><g
       transform="matrix(1,0,0,-1,0,540)"
       id="g12"><g
         transform="scale(0.0019685)"
         id="g14"><g
           clip-path="url(#clipPath20)"
           id="g16"><g
             id="g22"><g
               id="g24"><g
                 id="g26"><path
                   id="path28"
                   style="fill:#000000;fill-opacity:0;fill-rule:evenodd;stroke:none"
                   d="M 0,0 H 365760 V 274320 H 0 Z" /></g></g></g><g
             id="g30"><g
               id="g32"><path
                 id="path34"
                 style="fill:#fff5ee;fill-opacity:1;fill-rule:evenodd;stroke:none"
                 d="m 41297.914,137160 v 0 C 41297.914,61408.625 104686.34,0 182879.92,0 V 0 C 220429.8,0 256441.73,14450.744 282993.5,40173.234 309545.28,65895.73 324461.9,100782.91 324461.9,137160 v 0 c 0,75751.38 -63388.4,137160 -141581.98,137160 v 0 c -78193.58,0 -141582.006,-61408.62 -141582.006,-137160 z" /></g><path
               id="path36"
               style="fill:none;stroke:#fff5ee;stroke-width:381;stroke-linecap:butt;stroke-linejoin:round;stroke-miterlimit:8;stroke-dasharray:none;stroke-opacity:1"
               d="m 41297.914,137160 v 0 C 41297.914,61408.625 104686.34,0 182879.92,0 V 0 C 220429.8,0 256441.73,14450.744 282993.5,40173.234 309545.28,65895.73 324461.9,100782.91 324461.9,137160 v 0 c 0,75751.38 -63388.4,137160 -141581.98,137160 v 0 c -78193.58,0 -141582.006,-61408.62 -141582.006,-137160 z" /></g><g
             id="g38"><g
               id="g40"><g
                 id="g42"><path
                   id="path44"
                   style="fill:#000000;fill-opacity:0;fill-rule:evenodd;stroke:none"
                   d="M 64812,79932 H 300948 V 194388 H 64812 Z" /></g></g></g><g
             transform="scale(381)"
             id="g46"><g
               transform="translate(170.11023,209.79527)"
               id="g48"><g
                 id="g50"><text
                   id="text54"
                   style="font-variant:normal;font-weight:800;font-size:226.66667175px;font-family:Montserrat;-inkscape-font-specification:Montserrat-ExtraBold;writing-mode:lr-tb;fill:#333333;fill-opacity:1;fill-rule:nonzero;stroke:none"
                   transform="translate(15.952332,226.6)"><tspan
                     id="tspan52"
                     y="0"
                     x="0 167.73334">RM</tspan></text>
<text
                   id="text58"
                   style="font-variant:normal;font-weight:800;font-size:226.66667175px;font-family:Montserrat;-inkscape-font-specification:Montserrat-ExtraBold;writing-mode:lr-tb;fill:#007bff;fill-opacity:1;fill-rule:nonzero;stroke:none"
                   transform="translate(414.06418,226.6)"><tspan
                     id="tspan56"
                     y="0"
                     x="0">H</tspan></text>
</g></g></g><g
             transform="scale(381)"
             id="g60" /></g></g></g></g></svg>